<mxfile host="app.diagrams.net" agent="Mozilla/5.0 (Windows NT 10.0; Win64; x64) AppleWebKit/537.36 (KHTML, like Gecko) Chrome/136.0.0.0 Safari/537.36" version="27.0.9">
  <diagram name="Page-1" id="wgMGFQ2TX6nurzNiX2_r">
    <mxGraphModel dx="2011" dy="1280" grid="1" gridSize="10" guides="1" tooltips="1" connect="1" arrows="1" fold="1" page="1" pageScale="1" pageWidth="850" pageHeight="1100" math="0" shadow="0">
      <root>
        <mxCell id="0" />
        <mxCell id="1" parent="0" />
        <mxCell id="0WkWeL7ofMecZhudLpak-11" value="USER ROLES" style="shape=parallelogram;perimeter=parallelogramPerimeter;whiteSpace=wrap;html=1;fixedSize=1;" vertex="1" parent="1">
          <mxGeometry x="208.5" y="264" width="235" height="60" as="geometry" />
        </mxCell>
        <mxCell id="0WkWeL7ofMecZhudLpak-13" value="" style="strokeWidth=2;html=1;shape=mxgraph.flowchart.annotation_2;align=left;labelPosition=right;pointerEvents=1;direction=south;" vertex="1" parent="1">
          <mxGeometry x="167" y="329" width="305" height="50" as="geometry" />
        </mxCell>
        <mxCell id="0WkWeL7ofMecZhudLpak-17" value="STAFF" style="shape=parallelogram;html=1;strokeWidth=2;perimeter=parallelogramPerimeter;whiteSpace=wrap;rounded=1;arcSize=12;size=0.23;" vertex="1" parent="1">
          <mxGeometry x="424" y="373" width="100" height="60" as="geometry" />
        </mxCell>
        <mxCell id="0WkWeL7ofMecZhudLpak-19" value="" style="endArrow=classic;html=1;rounded=0;" edge="1" parent="1">
          <mxGeometry width="50" height="50" relative="1" as="geometry">
            <mxPoint x="473.5" y="433" as="sourcePoint" />
            <mxPoint x="474" y="473" as="targetPoint" />
          </mxGeometry>
        </mxCell>
        <mxCell id="0WkWeL7ofMecZhudLpak-22" value="IS DIRECTOR?" style="strokeWidth=2;html=1;shape=mxgraph.flowchart.decision;whiteSpace=wrap;" vertex="1" parent="1">
          <mxGeometry x="424" y="473" width="100" height="100" as="geometry" />
        </mxCell>
        <mxCell id="0WkWeL7ofMecZhudLpak-25" value="" style="endArrow=classic;html=1;rounded=0;" edge="1" parent="1">
          <mxGeometry width="50" height="50" relative="1" as="geometry">
            <mxPoint x="473.5" y="575" as="sourcePoint" />
            <mxPoint x="474.5" y="615" as="targetPoint" />
          </mxGeometry>
        </mxCell>
        <mxCell id="0WkWeL7ofMecZhudLpak-46" value="NO" style="edgeLabel;html=1;align=center;verticalAlign=middle;resizable=0;points=[];" vertex="1" connectable="0" parent="0WkWeL7ofMecZhudLpak-25">
          <mxGeometry x="-0.2961" y="3" relative="1" as="geometry">
            <mxPoint x="13" as="offset" />
          </mxGeometry>
        </mxCell>
        <mxCell id="0WkWeL7ofMecZhudLpak-32" value="IS TEACHER" style="strokeWidth=2;html=1;shape=mxgraph.flowchart.decision;whiteSpace=wrap;" vertex="1" parent="1">
          <mxGeometry x="424" y="617" width="100" height="100" as="geometry" />
        </mxCell>
        <mxCell id="0WkWeL7ofMecZhudLpak-34" value="" style="group" vertex="1" connectable="0" parent="1">
          <mxGeometry x="49" y="373" width="226" height="220" as="geometry" />
        </mxCell>
        <mxCell id="0WkWeL7ofMecZhudLpak-18" value="STUDENTS" style="shape=parallelogram;html=1;strokeWidth=2;perimeter=parallelogramPerimeter;whiteSpace=wrap;rounded=1;arcSize=12;size=0.23;" vertex="1" parent="0WkWeL7ofMecZhudLpak-34">
          <mxGeometry x="61" width="100" height="60" as="geometry" />
        </mxCell>
        <mxCell id="0WkWeL7ofMecZhudLpak-28" value="" style="strokeWidth=2;html=1;shape=mxgraph.flowchart.annotation_2;align=left;labelPosition=right;pointerEvents=1;direction=south;" vertex="1" parent="0WkWeL7ofMecZhudLpak-34">
          <mxGeometry x="55" y="60" width="125" height="50" as="geometry" />
        </mxCell>
        <mxCell id="0WkWeL7ofMecZhudLpak-29" value="FEE HISTORY" style="strokeWidth=2;html=1;shape=mxgraph.flowchart.display;whiteSpace=wrap;" vertex="1" parent="0WkWeL7ofMecZhudLpak-34">
          <mxGeometry y="110" width="100" height="60" as="geometry" />
        </mxCell>
        <mxCell id="0WkWeL7ofMecZhudLpak-30" value="ACADEMIC DATA" style="strokeWidth=2;html=1;shape=mxgraph.flowchart.display;whiteSpace=wrap;" vertex="1" parent="0WkWeL7ofMecZhudLpak-34">
          <mxGeometry x="126" y="112" width="100" height="60" as="geometry" />
        </mxCell>
        <mxCell id="0WkWeL7ofMecZhudLpak-31" value="" style="strokeWidth=2;html=1;shape=mxgraph.flowchart.annotation_2;align=left;labelPosition=right;pointerEvents=1;direction=north;" vertex="1" parent="0WkWeL7ofMecZhudLpak-34">
          <mxGeometry x="49.5" y="170" width="136" height="50" as="geometry" />
        </mxCell>
        <mxCell id="0WkWeL7ofMecZhudLpak-1" value="&lt;font style=&quot;font-size: 22px;&quot;&gt;START&lt;/font&gt;" style="ellipse;whiteSpace=wrap;html=1;fontColor=default;" vertex="1" parent="1">
          <mxGeometry x="265" y="19" width="120" height="80" as="geometry" />
        </mxCell>
        <mxCell id="0WkWeL7ofMecZhudLpak-8" value="" style="endArrow=classic;html=1;rounded=0;" edge="1" parent="1">
          <mxGeometry width="50" height="50" relative="1" as="geometry">
            <mxPoint x="324.5" y="219" as="sourcePoint" />
            <mxPoint x="325" y="259" as="targetPoint" />
          </mxGeometry>
        </mxCell>
        <mxCell id="0WkWeL7ofMecZhudLpak-10" value="YES" style="edgeLabel;html=1;align=center;verticalAlign=middle;resizable=0;points=[];" vertex="1" connectable="0" parent="0WkWeL7ofMecZhudLpak-8">
          <mxGeometry x="0.1014" y="2" relative="1" as="geometry">
            <mxPoint x="18" y="-12" as="offset" />
          </mxGeometry>
        </mxCell>
        <mxCell id="0WkWeL7ofMecZhudLpak-2" value="" style="endArrow=classic;html=1;rounded=0;" edge="1" parent="1">
          <mxGeometry width="50" height="50" relative="1" as="geometry">
            <mxPoint x="324.5" y="99" as="sourcePoint" />
            <mxPoint x="325" y="139" as="targetPoint" />
          </mxGeometry>
        </mxCell>
        <mxCell id="0WkWeL7ofMecZhudLpak-3" value="IS AUTH?" style="rhombus;whiteSpace=wrap;html=1;" vertex="1" parent="1">
          <mxGeometry x="285" y="139" width="80" height="80" as="geometry" />
        </mxCell>
        <mxCell id="0WkWeL7ofMecZhudLpak-6" value="" style="endArrow=classic;html=1;rounded=0;" edge="1" parent="1">
          <mxGeometry width="50" height="50" relative="1" as="geometry">
            <mxPoint x="285" y="178.5" as="sourcePoint" />
            <mxPoint x="265" y="69" as="targetPoint" />
            <Array as="points">
              <mxPoint x="215" y="179" />
              <mxPoint x="215" y="69" />
            </Array>
          </mxGeometry>
        </mxCell>
        <mxCell id="0WkWeL7ofMecZhudLpak-9" value="NO" style="text;html=1;align=center;verticalAlign=middle;resizable=0;points=[];autosize=1;strokeColor=none;fillColor=none;" vertex="1" parent="1">
          <mxGeometry x="225" y="157" width="40" height="30" as="geometry" />
        </mxCell>
        <mxCell id="0WkWeL7ofMecZhudLpak-39" value="" style="endArrow=classic;html=1;rounded=0;" edge="1" parent="1">
          <mxGeometry width="50" height="50" relative="1" as="geometry">
            <mxPoint x="424" y="669.5" as="sourcePoint" />
            <mxPoint x="410" y="520" as="targetPoint" />
            <Array as="points">
              <mxPoint x="354" y="670" />
              <mxPoint x="350" y="520" />
            </Array>
          </mxGeometry>
        </mxCell>
        <mxCell id="0WkWeL7ofMecZhudLpak-41" value="NO" style="edgeLabel;html=1;align=center;verticalAlign=middle;resizable=0;points=[];" vertex="1" connectable="0" parent="0WkWeL7ofMecZhudLpak-39">
          <mxGeometry x="0.0143" relative="1" as="geometry">
            <mxPoint x="13" as="offset" />
          </mxGeometry>
        </mxCell>
        <mxCell id="0WkWeL7ofMecZhudLpak-44" value="ALL CLASSES PERFORMANCE" style="strokeWidth=2;html=1;shape=mxgraph.flowchart.display;whiteSpace=wrap;" vertex="1" parent="1">
          <mxGeometry x="634" y="540" width="126" height="60" as="geometry" />
        </mxCell>
        <mxCell id="0WkWeL7ofMecZhudLpak-42" value="" style="strokeWidth=2;html=1;shape=mxgraph.flowchart.annotation_2;align=left;labelPosition=right;pointerEvents=1;" vertex="1" parent="1">
          <mxGeometry x="570" y="473" width="64" height="100" as="geometry" />
        </mxCell>
        <mxCell id="0WkWeL7ofMecZhudLpak-43" value="FINANCIAL REPORT" style="strokeWidth=2;html=1;shape=mxgraph.flowchart.display;whiteSpace=wrap;" vertex="1" parent="1">
          <mxGeometry x="634" y="440" width="126" height="60" as="geometry" />
        </mxCell>
        <mxCell id="0WkWeL7ofMecZhudLpak-45" value="" style="strokeWidth=2;html=1;shape=mxgraph.flowchart.annotation_2;align=left;labelPosition=right;pointerEvents=1;direction=south;" vertex="1" parent="1">
          <mxGeometry x="314" y="720" width="320" height="50" as="geometry" />
        </mxCell>
        <mxCell id="0WkWeL7ofMecZhudLpak-47" value="" style="endArrow=classic;html=1;rounded=0;entryX=0;entryY=0.5;entryDx=0;entryDy=0;entryPerimeter=0;" edge="1" parent="1" target="0WkWeL7ofMecZhudLpak-42">
          <mxGeometry width="50" height="50" relative="1" as="geometry">
            <mxPoint x="520" y="523" as="sourcePoint" />
            <mxPoint x="580" y="522.5" as="targetPoint" />
          </mxGeometry>
        </mxCell>
        <mxCell id="0WkWeL7ofMecZhudLpak-48" value="YES" style="edgeLabel;html=1;align=center;verticalAlign=middle;resizable=0;points=[];" vertex="1" connectable="0" parent="0WkWeL7ofMecZhudLpak-47">
          <mxGeometry x="-0.4" y="1" relative="1" as="geometry">
            <mxPoint x="5" y="-7" as="offset" />
          </mxGeometry>
        </mxCell>
        <mxCell id="0WkWeL7ofMecZhudLpak-49" value="CLASS PERFORMANCE" style="strokeWidth=2;html=1;shape=mxgraph.flowchart.display;whiteSpace=wrap;" vertex="1" parent="1">
          <mxGeometry x="265" y="770" width="100" height="60" as="geometry" />
        </mxCell>
        <mxCell id="0WkWeL7ofMecZhudLpak-50" value="NO OF STUDENT IN CLASS" style="strokeWidth=2;html=1;shape=mxgraph.flowchart.display;whiteSpace=wrap;" vertex="1" parent="1">
          <mxGeometry x="580" y="770" width="100" height="60" as="geometry" />
        </mxCell>
        <mxCell id="0WkWeL7ofMecZhudLpak-51" value="" style="strokeWidth=2;html=1;shape=mxgraph.flowchart.annotation_2;align=left;labelPosition=right;pointerEvents=1;direction=west;" vertex="1" parent="1">
          <mxGeometry x="760" y="463" width="50" height="110" as="geometry" />
        </mxCell>
        <mxCell id="0WkWeL7ofMecZhudLpak-53" value="" style="strokeWidth=2;html=1;shape=mxgraph.flowchart.annotation_2;align=left;labelPosition=right;pointerEvents=1;direction=north;" vertex="1" parent="1">
          <mxGeometry x="310" y="830" width="330" height="50" as="geometry" />
        </mxCell>
        <mxCell id="0WkWeL7ofMecZhudLpak-55" value="" style="edgeStyle=segmentEdgeStyle;endArrow=classic;html=1;curved=0;rounded=0;endSize=8;startSize=8;" edge="1" parent="1">
          <mxGeometry width="50" height="50" relative="1" as="geometry">
            <mxPoint x="810" y="517" as="sourcePoint" />
            <mxPoint x="850" y="917" as="targetPoint" />
          </mxGeometry>
        </mxCell>
        <mxCell id="0WkWeL7ofMecZhudLpak-57" value="" style="edgeStyle=segmentEdgeStyle;endArrow=classic;html=1;curved=0;rounded=0;endSize=8;startSize=8;" edge="1" parent="1">
          <mxGeometry width="50" height="50" relative="1" as="geometry">
            <mxPoint x="850" y="920" as="sourcePoint" />
            <mxPoint x="485" y="920" as="targetPoint" />
          </mxGeometry>
        </mxCell>
        <mxCell id="0WkWeL7ofMecZhudLpak-58" value="" style="edgeStyle=segmentEdgeStyle;endArrow=classic;html=1;curved=0;rounded=0;endSize=8;startSize=8;" edge="1" parent="1">
          <mxGeometry width="50" height="50" relative="1" as="geometry">
            <mxPoint x="166" y="592" as="sourcePoint" />
            <mxPoint x="166" y="920" as="targetPoint" />
          </mxGeometry>
        </mxCell>
        <mxCell id="0WkWeL7ofMecZhudLpak-59" value="" style="edgeStyle=segmentEdgeStyle;endArrow=classic;html=1;curved=0;rounded=0;endSize=8;startSize=8;entryX=0;entryY=0.5;entryDx=0;entryDy=0;" edge="1" parent="1" target="0WkWeL7ofMecZhudLpak-61">
          <mxGeometry width="50" height="50" relative="1" as="geometry">
            <mxPoint x="164.5" y="920" as="sourcePoint" />
            <mxPoint x="440" y="920" as="targetPoint" />
          </mxGeometry>
        </mxCell>
        <mxCell id="0WkWeL7ofMecZhudLpak-60" value="" style="endArrow=classic;html=1;rounded=0;" edge="1" parent="1">
          <mxGeometry width="50" height="50" relative="1" as="geometry">
            <mxPoint x="474.59000000000003" y="860" as="sourcePoint" />
            <mxPoint x="474.499090909091" y="910" as="targetPoint" />
          </mxGeometry>
        </mxCell>
        <mxCell id="0WkWeL7ofMecZhudLpak-61" value="" style="ellipse;whiteSpace=wrap;html=1;aspect=fixed;" vertex="1" parent="1">
          <mxGeometry x="465.5" y="910" width="19" height="19" as="geometry" />
        </mxCell>
        <mxCell id="0WkWeL7ofMecZhudLpak-62" value="" style="endArrow=classic;html=1;rounded=0;" edge="1" parent="1">
          <mxGeometry width="50" height="50" relative="1" as="geometry">
            <mxPoint x="474.5" y="929" as="sourcePoint" />
            <mxPoint x="475" y="989" as="targetPoint" />
          </mxGeometry>
        </mxCell>
        <mxCell id="0WkWeL7ofMecZhudLpak-65" value="STORAGE" style="strokeWidth=2;html=1;shape=mxgraph.flowchart.database;whiteSpace=wrap;" vertex="1" parent="1">
          <mxGeometry x="443.5" y="990" width="60" height="80" as="geometry" />
        </mxCell>
        <mxCell id="0WkWeL7ofMecZhudLpak-66" value="" style="endArrow=classic;html=1;rounded=0;" edge="1" parent="1" target="0WkWeL7ofMecZhudLpak-67">
          <mxGeometry width="50" height="50" relative="1" as="geometry">
            <mxPoint x="470" y="1071" as="sourcePoint" />
            <mxPoint x="470.5" y="1131" as="targetPoint" />
          </mxGeometry>
        </mxCell>
        <mxCell id="0WkWeL7ofMecZhudLpak-67" value="END" style="strokeWidth=2;html=1;shape=mxgraph.flowchart.start_1;whiteSpace=wrap;" vertex="1" parent="1">
          <mxGeometry x="420.5" y="1101" width="100" height="60" as="geometry" />
        </mxCell>
      </root>
    </mxGraphModel>
  </diagram>
</mxfile>
